<svg width="64" height="65" viewBox="0 0 64 65" fill="none" xmlns="http://www.w3.org/2000/svg">
<path d="M31.6328 14.777C32.0332 15.0087 32.55 14.9003 32.8023 14.5126L33.7676 13.0292C34.0773 12.5533 33.9452 11.9147 33.4537 11.6303C32.9622 11.3459 32.3399 11.5481 32.0817 12.0539L31.2769 13.6301C31.0666 14.0421 31.2324 14.5453 31.6328 14.777Z" fill="#FFD400"/>
<path d="M23.6322 12.6356C24.0949 12.6356 24.4889 12.2825 24.5127 11.8205L24.604 10.0501C24.6332 9.48471 24.1983 9 23.6322 9C23.066 9 22.6312 9.48471 22.6603 10.0501L22.7516 11.8205C22.7755 12.2825 23.1695 12.6356 23.6322 12.6356Z" fill="#FFD400"/>
<path d="M15.6316 14.777C16.032 14.5453 16.1978 14.0421 15.9874 13.6301L15.1827 12.0539C14.9245 11.5481 14.3022 11.3459 13.8107 11.6303C13.3192 11.9147 13.1871 12.5533 13.4968 13.0292L14.462 14.5126C14.7144 14.9003 15.2312 15.0087 15.6316 14.777Z" fill="#FFD400"/>
<path d="M9.77696 20.6316C10.0087 20.2312 9.90034 19.7144 9.51259 19.462L8.02925 18.4968C7.55329 18.1871 6.9147 18.3192 6.63028 18.8107C6.34585 19.3022 6.5481 19.9245 7.05386 20.1827L8.63007 20.9874C9.04209 21.1978 9.54526 21.032 9.77696 20.6316Z" fill="#FFD400"/>
<path d="M6.82047 27.7516C7.28255 27.7755 7.63559 28.1695 7.63559 28.6322C7.63559 29.0949 7.28254 29.4889 6.82047 29.5127L5.05011 29.604C4.48471 29.6332 4 29.1983 4 28.6322C4 28.066 4.48471 27.6312 5.05011 27.6603L6.82047 27.7516Z" fill="#FFD400"/>
<path d="M32.7483 18.7404C30.3514 16.5304 27.1494 15.1805 23.6322 15.1805C16.203 15.1805 10.1805 21.203 10.1805 28.6322C10.1805 29.1751 10.2127 29.7105 10.2752 30.2366C12.4492 28.815 15.0476 27.9885 17.8391 27.9885C18.9711 27.9885 20.073 28.1248 21.1285 28.3822C23.465 23.7424 27.6654 20.1998 32.7483 18.7404Z" fill="#FFD400"/>
<path d="M17.8391 54.0575C11.0847 54.0575 5.60919 48.582 5.60919 41.8276C5.60919 35.0733 11.0847 29.5977 17.8391 29.5977C19.3036 29.5977 20.7081 29.8552 22.0096 30.3273C24.5775 24.0462 30.7489 19.6207 37.954 19.6207C47.4635 19.6207 55.1724 27.3297 55.1724 36.8391C55.1724 37.258 55.1575 37.6735 55.128 38.0849C58.0037 39.409 60 42.3162 60 45.6897C60 50.3111 56.2536 54.0575 51.6322 54.0575H17.8391Z" fill="white"/>
</svg>
