<svg width="0" height="0" class="hidden">
  <symbol fill="none" xmlns="http://www.w3.org/2000/svg" viewBox="0 0 24 24" id="humidity">
    <path d="M2.71999 7.65001C2.91555 7.70743 3.10354 7.788 3.27999 7.89001C3.89981 8.25994 4.60817 8.45526 5.32999 8.45526C6.05181 8.45526 6.76018 8.25994 7.37999 7.89001C7.77045 7.66917 8.21141 7.5531 8.65999 7.5531C9.10858 7.5531 9.54953 7.66917 9.93999 7.89001C10.5673 8.2487 11.2774 8.43739 12 8.43739C12.7226 8.43739 13.4327 8.2487 14.06 7.89001C14.4505 7.66917 14.8914 7.5531 15.34 7.5531C15.7886 7.5531 16.2295 7.66917 16.62 7.89001C17.2537 8.2522 17.9701 8.44506 18.7 8.45001C19.4052 8.44856 20.0966 8.25495 20.7 7.89001C20.8764 7.788 21.0644 7.70743 21.26 7.65001C21.5146 7.57575 21.7293 7.40339 21.8568 7.17084C21.9843 6.9383 22.0143 6.66462 21.94 6.41001C21.8657 6.1554 21.6934 5.94072 21.4608 5.8132C21.2283 5.68567 20.9546 5.65575 20.7 5.73001C20.3494 5.83821 20.0135 5.98935 19.7 6.18001C19.3814 6.3663 19.019 6.46449 18.65 6.46449C18.281 6.46449 17.9186 6.3663 17.6 6.18001C16.9066 5.79108 16.125 5.58682 15.33 5.58682C14.535 5.58682 13.7533 5.79108 13.06 6.18001C12.738 6.36706 12.3723 6.46559 12 6.46559C11.6276 6.46559 11.2619 6.36706 10.94 6.18001C10.2466 5.79108 9.46498 5.58682 8.66999 5.58682C7.875 5.58682 7.09335 5.79108 6.39999 6.18001C6.08143 6.3663 5.71903 6.46449 5.34999 6.46449C4.98095 6.46449 4.61856 6.3663 4.29999 6.18001C3.98649 5.98935 3.6506 5.83821 3.29999 5.73001C3.04538 5.65575 2.7717 5.68567 2.53916 5.8132C2.30661 5.94072 2.13425 6.1554 2.05999 6.41001C1.98573 6.66462 2.01565 6.9383 2.14318 7.17084C2.2707 7.40339 2.48538 7.57575 2.73999 7.65001H2.71999ZM20.72 15.73C20.3694 15.8382 20.0335 15.9894 19.72 16.18C19.4014 16.3663 19.039 16.4645 18.67 16.4645C18.301 16.4645 17.9386 16.3663 17.62 16.18C16.9266 15.7911 16.145 15.5868 15.35 15.5868C14.555 15.5868 13.7733 15.7911 13.08 16.18C12.758 16.3671 12.3923 16.4656 12.02 16.4656C11.6476 16.4656 11.2819 16.3671 10.96 16.18C10.2666 15.7911 9.48498 15.5868 8.68999 15.5868C7.895 15.5868 7.11335 15.7911 6.41999 16.18C6.10143 16.3663 5.73903 16.4645 5.36999 16.4645C5.00095 16.4645 4.63856 16.3663 4.31999 16.18C4.00649 15.9894 3.6706 15.8382 3.31999 15.73C3.19392 15.6932 3.06185 15.6817 2.9313 15.6959C2.80076 15.7102 2.6743 15.7501 2.55916 15.8132C2.44401 15.8763 2.34243 15.9615 2.26022 16.0639C2.178 16.1663 2.11676 16.2839 2.07999 16.41C2.04322 16.5361 2.03164 16.6682 2.04592 16.7987C2.06019 16.9292 2.10004 17.0557 2.16318 17.1708C2.22632 17.286 2.31153 17.3876 2.41393 17.4698C2.51633 17.552 2.63392 17.6132 2.75999 17.65C2.95555 17.7074 3.14354 17.788 3.31999 17.89C3.93981 18.2599 4.64817 18.4553 5.36999 18.4553C6.09181 18.4553 6.80018 18.2599 7.41999 17.89C7.81045 17.6692 8.25141 17.5531 8.69999 17.5531C9.14858 17.5531 9.58953 17.6692 9.97999 17.89C10.6073 18.2487 11.3174 18.4374 12.04 18.4374C12.7626 18.4374 13.4727 18.2487 14.1 17.89C14.4905 17.6692 14.9314 17.5531 15.38 17.5531C15.8286 17.5531 16.2695 17.6692 16.66 17.89C17.2937 18.2522 18.0101 18.4451 18.74 18.45C19.4452 18.4486 20.1366 18.255 20.74 17.89C20.9164 17.788 21.1044 17.7074 21.3 17.65C21.5546 17.5757 21.7693 17.4034 21.8968 17.1708C22.0243 16.9383 22.0543 16.6646 21.98 16.41C21.9057 16.1554 21.7334 15.9407 21.5008 15.8132C21.2683 15.6857 20.9946 15.6557 20.74 15.73H20.72ZM20.72 10.73C20.3694 10.8382 20.0335 10.9894 19.72 11.18C19.4014 11.3663 19.039 11.4645 18.67 11.4645C18.301 11.4645 17.9386 11.3663 17.62 11.18C16.9266 10.7911 16.145 10.5868 15.35 10.5868C14.555 10.5868 13.7733 10.7911 13.08 11.18C12.758 11.3671 12.3923 11.4656 12.02 11.4656C11.6476 11.4656 11.2819 11.3671 10.96 11.18C10.2666 10.7911 9.48498 10.5868 8.68999 10.5868C7.895 10.5868 7.11335 10.7911 6.41999 11.18C6.10143 11.3663 5.73903 11.4645 5.36999 11.4645C5.00095 11.4645 4.63856 11.3663 4.31999 11.18C4.00649 10.9894 3.6706 10.8382 3.31999 10.73C3.18905 10.6806 3.0492 10.6592 2.90947 10.6672C2.76974 10.6752 2.63325 10.7125 2.50883 10.7766C2.38441 10.8407 2.27483 10.9302 2.18718 11.0393C2.09953 11.1484 2.03576 11.2747 1.99999 11.41C1.96322 11.5361 1.95164 11.6682 1.96592 11.7987C1.98019 11.9292 2.02004 12.0557 2.08318 12.1708C2.14632 12.286 2.23153 12.3876 2.33393 12.4698C2.43633 12.552 2.55392 12.6132 2.67999 12.65C2.87555 12.7074 3.06354 12.788 3.23999 12.89C3.85981 13.2599 4.56817 13.4553 5.28999 13.4553C6.01181 13.4553 6.72018 13.2599 7.33999 12.89C7.73045 12.6692 8.17141 12.5531 8.61999 12.5531C9.06858 12.5531 9.50953 12.6692 9.89999 12.89C10.5273 13.2487 11.2374 13.4374 11.96 13.4374C12.6826 13.4374 13.3927 13.2487 14.02 12.89C14.4105 12.6692 14.8514 12.5531 15.3 12.5531C15.7486 12.5531 16.1895 12.6692 16.58 12.89C17.2137 13.2522 17.9301 13.4451 18.66 13.45C19.3652 13.4486 20.0566 13.255 20.66 12.89C20.8364 12.788 21.0244 12.7074 21.22 12.65C21.4746 12.5757 21.6893 12.4034 21.8168 12.1708C21.9443 11.9383 21.9743 11.6646 21.9 11.41C21.8257 11.1554 21.6534 10.9407 21.4208 10.8132C21.1883 10.6857 20.9146 10.6557 20.66 10.73H20.72Z" fill="white"></path>
  </symbol>
  <symbol fill="none" xmlns="http://www.w3.org/2000/svg" viewBox="0 0 24 24" id="love">
    <path d="M20.16 4.61C19.0983 3.548 17.6907 2.90232 16.1932 2.79038C14.6957 2.67843 13.2078 3.10766 12 4C10.7277 3.05363 9.14399 2.62451 7.56792 2.79903C5.99185 2.97356 4.54044 3.73877 3.50597 4.94058C2.47151 6.14239 1.93082 7.69152 1.9928 9.27601C2.05478 10.8605 2.71482 12.3627 3.84 13.48L11.29 20.93C11.383 21.0237 11.4936 21.0981 11.6154 21.1489C11.7373 21.1997 11.868 21.2258 12 21.2258C12.132 21.2258 12.2627 21.1997 12.3846 21.1489C12.5064 21.0981 12.617 21.0237 12.71 20.93L20.16 13.48C20.7427 12.8977 21.2049 12.2063 21.5202 11.4454C21.8356 10.6844 21.9979 9.86873 21.9979 9.045C21.9979 8.22127 21.8356 7.40561 21.5202 6.64463C21.2049 5.88365 20.7427 5.19227 20.16 4.61ZM18.75 12.07L12 18.81L5.25 12.07C4.65518 11.4727 4.24998 10.713 4.08523 9.88634C3.92049 9.05963 4.00353 8.20268 4.32395 7.42299C4.64437 6.6433 5.1879 5.97559 5.88635 5.50362C6.58479 5.03165 7.40706 4.77644 8.25 4.77C9.37611 4.77276 10.4551 5.22233 11.25 6.02C11.343 6.11373 11.4536 6.18812 11.5754 6.23889C11.6973 6.28966 11.828 6.3158 11.96 6.3158C12.092 6.3158 12.2227 6.28966 12.3446 6.23889C12.4664 6.18812 12.577 6.11373 12.67 6.02C13.4883 5.31088 14.5455 4.93914 15.6275 4.98002C16.7096 5.0209 17.7357 5.47134 18.4982 6.24019C19.2607 7.00903 19.7026 8.03884 19.7345 9.12119C19.7664 10.2035 19.3859 11.2576 18.67 12.07H18.75Z" fill="#FF7777"></path>
  </symbol>
  <symbol fill="none" xmlns="http://www.w3.org/2000/svg" viewBox="0 0 128 128" id="partly-cloudy">
    <path d="M63.2655 28.5539C64.0663 29.0173 65.1 28.8007 65.6046 28.0252L67.5351 25.0585C68.1546 24.1066 67.8904 22.8294 66.9074 22.2606C65.9244 21.6917 64.6798 22.0962 64.1634 23.1077L62.5539 26.2601C62.1332 27.0842 62.4647 28.0905 63.2655 28.5539Z" fill="#FFD400"></path>
    <path d="M47.2644 24.2712C48.1897 24.2712 48.9778 23.5651 49.0255 22.6409L49.2081 19.1002C49.2664 17.9694 48.3967 17 47.2644 17C46.1321 17 45.2623 17.9694 45.3207 19.1002L45.5033 22.6409C45.5509 23.5651 46.339 24.2712 47.2644 24.2712Z" fill="#FFD400"></path>
    <path d="M31.2632 28.5539C32.064 28.0905 32.3955 27.0842 31.9748 26.2602L30.3654 23.1077C29.8489 22.0962 28.6043 21.6917 27.6213 22.2606C26.6383 22.8294 26.3741 24.1066 26.9936 25.0585L28.9241 28.0252C29.4287 28.8007 30.4624 29.0173 31.2632 28.5539Z" fill="#FFD400"></path>
    <path d="M19.5539 40.2632C20.0173 39.4624 19.8007 38.4287 19.0252 37.9241L16.0585 35.9936C15.1066 35.3741 13.8294 35.6383 13.2606 36.6213C12.6917 37.6043 13.0962 38.8489 14.1077 39.3654L17.2601 40.9748C18.0842 41.3955 19.0905 41.064 19.5539 40.2632Z" fill="#FFD400"></path>
    <path d="M13.6409 54.5033C14.5651 54.5509 15.2712 55.339 15.2712 56.2644C15.2712 57.1897 14.5651 57.9778 13.6409 58.0255L10.1002 58.2081C8.96943 58.2664 8 57.3967 8 56.2644C8 55.1321 8.96942 54.2623 10.1002 54.3207L13.6409 54.5033Z" fill="#FFD400"></path>
    <path d="M65.4965 36.4809C60.7028 32.0609 54.2989 29.361 47.2644 29.361C32.4061 29.361 20.361 41.4061 20.361 56.2644C20.361 57.3502 20.4253 58.421 20.5504 59.4731C24.8985 56.6299 30.0953 54.977 35.6782 54.977C37.9422 54.977 40.146 55.2495 42.257 55.7644C46.9301 46.4848 55.3308 39.3996 65.4965 36.4809Z" fill="#FFD400"></path>
    <path d="M35.6782 107.115C22.1694 107.115 11.2184 96.1639 11.2184 82.6552C11.2184 69.1464 22.1694 58.1954 35.6782 58.1954C38.6073 58.1954 41.4161 58.7103 44.0192 59.6545C49.155 47.0924 61.4979 38.2414 75.908 38.2414C94.9269 38.2414 110.345 53.6593 110.345 72.6782C110.345 73.516 110.315 74.3468 110.256 75.1697C116.007 77.8179 120 83.6324 120 90.3793C120 99.6222 112.507 107.115 103.264 107.115H35.6782Z" fill="white"></path>
  </symbol>
  <symbol fill="none" xmlns="http://www.w3.org/2000/svg" viewBox="0 0 128 128" id="rain-thunder">
    <path d="M89.2914 58.3905H82.2733C80.9693 58.3905 79.8146 59.2329 79.4165 60.4747L72.8766 80.876C72.256 82.8121 73.7003 84.7918 75.7334 84.7918H79.3153C80.4603 84.7918 81.3715 85.7511 81.3127 86.8946L80.2038 108.431C80.1761 108.969 80.9006 109.165 81.1474 108.686L96.5343 78.8757C97.5649 76.879 96.1154 74.4997 93.8684 74.4997H90.8733C89.5094 74.4997 88.5455 73.1644 88.9751 71.8699L92.1388 62.3353C92.7831 60.3934 91.3374 58.3905 89.2914 58.3905Z" fill="#FFD400"></path>
    <path d="M98.1803 82.9112L100.241 78.9196C102.062 75.3909 99.5004 71.1862 95.5293 71.1862H92.6932L95.7252 62.0484C96.8639 58.6167 94.309 55.0769 90.6932 55.0769H81.5351C79.2305 55.0769 77.1899 56.5657 76.4864 58.7603L69.2978 81.1852C69.1122 81.7641 69.0311 82.3452 69.0418 82.9112L33.1834 82.9112C19.275 82.9112 8 71.6362 8 57.7278C8 43.8194 19.275 32.5444 33.1834 32.5444C36.1992 32.5444 39.0912 33.0745 41.7712 34.0466C47.059 21.1128 59.7671 12 74.6036 12C94.1852 12 110.059 27.874 110.059 47.4556C110.059 48.3182 110.028 49.1737 109.968 50.0208C115.889 52.7474 120 58.7339 120 65.6805C120 75.1967 112.285 82.9112 102.769 82.9112H98.1803Z" fill="white"></path>
    <path d="M68.4332 109.963L64.994 102.793L61.5544 109.964C61.2132 110.562 61.0178 111.256 61.0178 111.997C61.0178 114.234 62.798 116.047 64.9941 116.047C67.1902 116.047 68.9704 114.234 68.9704 111.997C68.9704 111.256 68.7748 110.561 68.4332 109.963Z" fill="#64D2FF"></path>
    <path d="M56.5048 96.7098L53.0651 89.5385L49.6259 96.7088C49.2843 97.3066 49.0887 98.0015 49.0887 98.7429C49.0887 100.98 50.869 102.793 53.065 102.793C55.2611 102.793 57.0414 100.98 57.0414 98.7429C57.0414 98.0019 56.846 97.3073 56.5048 96.7098Z" fill="#64D2FF"></path>
    <path d="M44.5756 109.964L41.1361 102.793L37.6968 109.963C37.3554 110.561 37.1598 111.256 37.1598 111.997C37.1598 114.234 38.9401 116.047 41.1361 116.047C43.3322 116.047 45.1124 114.234 45.1124 111.997C45.1124 111.256 44.917 110.561 44.5756 109.964Z" fill="#64D2FF"></path>
    <path d="M32.6464 96.7091L29.207 89.5385L25.7675 96.7095C25.4262 97.3071 25.2307 98.0017 25.2307 98.7429C25.2307 100.98 27.011 102.793 29.2071 102.793C31.4031 102.793 33.1834 100.98 33.1834 98.7429C33.1834 98.0016 32.9878 97.3068 32.6464 96.7091Z" fill="#64D2FF"></path>
  </symbol>
  <symbol fill="none" xmlns="http://www.w3.org/2000/svg" viewBox="0 0 128 128" id="rainy">
    <path d="M33.1834 81.9112C19.275 81.9112 8 70.6362 8 56.7278C8 42.8194 19.275 31.5444 33.1834 31.5444C36.1992 31.5444 39.0912 32.0745 41.7712 33.0466C47.059 20.1128 59.767 11 74.6035 11C94.1851 11 110.059 26.874 110.059 46.4556C110.059 47.3182 110.028 48.1737 109.968 49.0208C115.889 51.7474 120 57.7339 120 64.6805C120 74.1968 112.286 81.9112 102.769 81.9112H33.1834Z" fill="white"></path>
    <path d="M92.9543 95.7094L89.5148 88.5385L86.0752 95.7096C85.7339 96.3071 85.5385 97.0018 85.5385 97.7429C85.5385 99.9797 87.3187 101.793 89.5148 101.793C91.7109 101.793 93.4911 99.9797 93.4911 97.7429C93.4911 97.0017 93.2956 96.307 92.9543 95.7094Z" fill="#64D2FF"></path>
    <path d="M81.0255 110.29L77.5858 103.118L74.1465 110.289C73.805 110.887 73.6095 111.581 73.6095 112.323C73.6095 114.56 75.3897 116.373 77.5858 116.373C79.7819 116.373 81.5621 114.56 81.5621 112.323C81.5621 111.582 81.3667 110.887 81.0255 110.29Z" fill="#64D2FF"></path>
    <path d="M69.0964 95.7095L65.6568 88.5385L62.2173 95.7094C61.876 96.307 61.6805 97.0017 61.6805 97.7429C61.6805 99.9797 63.4607 101.793 65.6568 101.793C67.8529 101.793 69.6331 99.9797 69.6331 97.7429C69.6331 97.0018 69.4377 96.3071 69.0964 95.7095Z" fill="#64D2FF"></path>
    <path d="M57.8299 110.289L54.3905 103.118L50.9509 110.289C50.6097 110.887 50.4142 111.582 50.4142 112.323C50.4142 114.56 52.1945 116.373 54.3905 116.373C56.5866 116.373 58.3669 114.56 58.3669 112.323C58.3669 111.582 58.1713 110.887 57.8299 110.289Z" fill="#64D2FF"></path>
    <path d="M45.9012 95.7097L42.4616 88.5385L39.0221 95.7092C38.6807 96.3069 38.4852 97.0016 38.4852 97.7429C38.4852 99.9797 40.2655 101.793 42.4615 101.793C44.6576 101.793 46.4379 99.9797 46.4379 97.7429C46.4379 97.0018 46.2424 96.3073 45.9012 95.7097Z" fill="#64D2FF"></path>
    <path d="M33.972 110.289L30.5325 103.118L27.093 110.289C26.7517 110.887 26.5562 111.582 26.5562 112.323C26.5562 114.56 28.3365 116.373 30.5325 116.373C32.7286 116.373 34.5089 114.56 34.5089 112.323C34.5089 111.582 34.3134 110.887 33.972 110.289Z" fill="#64D2FF"></path>
  </symbol>
  <symbol fill="none" xmlns="http://www.w3.org/2000/svg" viewBox="0 0 128 128" id="snowy">
    <path d="M46.8717 66.6318C46.8717 65.7731 47.5678 65.0769 48.4265 65.0769C49.2852 65.0769 49.9814 65.7731 49.9814 66.6318V72.2469L52.6952 69.8346C53.3324 69.2681 54.3149 69.3195 54.8895 69.9495C55.464 70.5795 55.4132 71.5495 54.7759 72.116L49.9814 76.3779V83.3408L56.4147 79.6739L57.6685 73.8506C57.8472 73.0208 58.6729 72.491 59.5128 72.6672C60.3528 72.8435 60.8889 73.6591 60.7102 74.4888L60.0386 77.6084L64.5897 75.0143C65.3286 74.5931 66.2757 74.8469 66.705 75.5811C67.1344 76.3152 66.8835 77.2518 66.1446 77.673L61.224 80.4776L64.6427 81.5742C65.4599 81.8363 65.9073 82.7025 65.6419 83.5087C65.3766 84.315 64.499 84.7561 63.6817 84.4939L57.6001 82.5431L51.6523 85.9332L58.0694 89.5908L63.7531 87.7677C64.5703 87.5055 65.4479 87.9466 65.7133 88.7529C65.9787 89.5591 65.5313 90.4252 64.714 90.6874L61.6932 91.6564L66.213 94.2325C66.9519 94.6537 67.2029 95.5903 66.7735 96.3245C66.3442 97.0586 65.3971 97.3124 64.6582 96.8912L59.7065 94.0688L60.465 97.592C60.6437 98.4218 60.1076 99.2374 59.2677 99.4136C58.4277 99.5899 57.602 99.0601 57.4233 98.2303L56.0826 92.0033L49.9814 88.5257V95.9842L54.4649 99.9697C55.1022 100.536 55.1531 101.506 54.5785 102.136C54.0039 102.766 53.0215 102.818 52.3842 102.251L49.9814 100.115V105.274C49.9814 106.132 49.2852 106.828 48.4265 106.828C47.5678 106.828 46.8717 106.132 46.8717 105.274V99.6943L44.1981 102.071C43.5608 102.637 42.5783 102.586 42.0038 101.956C41.4292 101.326 41.48 100.356 42.1173 99.7894L46.8717 95.5632V88.6581L40.3383 92.382L39.0959 98.1527C38.9172 98.9825 38.0915 99.5122 37.2515 99.336C36.4116 99.1597 35.8755 98.3442 36.0541 97.5144L36.7145 94.4475L32.1949 97.0236C31.456 97.4447 30.5089 97.191 30.0795 96.4568C29.6502 95.7226 29.9011 94.786 30.64 94.3649L35.5919 91.5424L32.1217 90.4293C31.3045 90.1671 30.8571 89.301 31.1224 88.4948C31.3878 87.6885 32.2654 87.2474 33.0826 87.5096L39.2158 89.4769L45.433 85.9332L38.8833 82.2001L33.1484 84.0397C32.3311 84.3019 31.4535 83.8608 31.1882 83.0545C30.9228 82.2483 31.3702 81.3822 32.1874 81.12L35.2595 80.1346L30.7085 77.5406C29.9696 77.1195 29.7187 76.1829 30.148 75.4487C30.5774 74.7145 31.5244 74.4608 32.2633 74.882L37.1838 77.6865L36.4364 74.2154C36.2578 73.3856 36.7939 72.5701 37.6338 72.3938C38.4737 72.2176 39.2995 72.7474 39.4781 73.5771L40.8076 79.752L46.8717 83.2084V75.8853L42.4283 71.9355C41.791 71.369 41.7402 70.3991 42.3148 69.7691C42.8893 69.1391 43.8718 69.0876 44.5091 69.6541L46.8717 71.7543V66.6318Z" fill="#64D2FF"></path>
    <path d="M69.0954 92.9112C68.8252 92.6355 68.5123 92.3922 68.1592 92.1917L68.0136 92.109C68.9578 91.0292 69.3378 89.4955 68.8471 88.0102C68.5913 87.2359 68.1366 86.5899 67.5606 86.1046C68.1016 85.627 68.5284 85.0036 68.7732 84.2627C69.3012 82.6645 68.8211 81.0104 67.7149 79.9258L68.0882 79.7138C70.1381 78.5498 70.8366 75.9427 69.6432 73.9098C68.4649 71.9026 65.884 71.2111 63.8601 72.3604L63.6296 72.4912C63.1701 71.0858 61.9819 69.9707 60.4508 69.6506C59.6529 69.4838 58.8523 69.5519 58.1284 69.8116C57.9996 69.0324 57.6502 68.2796 57.0751 67.6514C55.9331 66.404 54.212 65.9889 52.6876 66.4468V66.0245C52.6876 63.6711 50.7798 61.7633 48.4264 61.7633C46.073 61.7633 44.1652 63.6711 44.1652 66.0245V66.1687C42.7368 65.8734 41.1933 66.3162 40.1412 67.4653C39.5832 68.0748 39.2377 68.8015 39.1 69.556C38.3575 69.2747 37.5304 69.1963 36.7062 69.3687C35.0771 69.7092 33.8362 70.9498 33.4482 72.4824L32.9927 72.2238C30.9687 71.0746 28.3879 71.766 27.2096 73.7732C26.0161 75.8062 26.7146 78.4133 28.7646 79.5773L28.917 79.6638C27.9526 80.7453 27.5603 82.2943 28.0558 83.7941C28.3191 84.591 28.793 85.252 29.3931 85.7418C28.7608 86.2366 28.2609 86.9171 27.9877 87.7439C27.4549 89.3568 27.9488 91.0267 29.0768 92.1106L28.6936 92.3282C28.6144 92.3732 28.5373 92.4203 28.4622 92.4694C16.8105 90.2595 8 80.0225 8 67.7278C8 53.8194 19.275 42.5444 33.1834 42.5444C36.1992 42.5444 39.0912 43.0745 41.7712 44.0466C47.059 31.1128 59.767 22 74.6035 22C94.1851 22 110.059 37.874 110.059 57.4556C110.059 58.3182 110.028 59.1737 109.968 60.0208C115.889 62.7474 120 68.7339 120 75.6805C120 85.1968 112.286 92.9112 102.769 92.9112H69.0954Z" fill="white"></path>
  </symbol>
  <symbol fill="none" xmlns="http://www.w3.org/2000/svg" viewBox="0 0 128 128" id="sunny">
    <path fill-rule="evenodd" clip-rule="evenodd" d="M111.955 66.5117C110.637 66.4438 109.63 65.3198 109.63 64C109.63 62.6802 110.637 61.5562 111.955 61.4883L117.005 61.2278C118.617 61.1446 120 62.3851 120 64C120 65.6149 118.617 66.8553 117.005 66.7722L111.955 66.5117ZM103.521 41.1787C104.182 42.3208 105.618 42.7936 106.793 42.1936L111.289 39.8982C112.732 39.1616 113.309 37.3865 112.497 35.9845C111.686 34.5825 109.864 34.2057 108.507 35.0892L104.276 37.8426C103.17 38.5623 102.861 40.0366 103.521 41.1787ZM86.8213 24.4786C87.9634 25.1395 89.4377 24.8305 90.1574 23.7245L92.9108 19.4933C93.7942 18.1356 93.4175 16.3141 92.0155 15.5028C90.6135 14.6915 88.8384 15.2684 88.1018 16.711L85.8064 21.2071C85.2064 22.3824 85.6792 23.8176 86.8213 24.4786ZM64 18.3704C65.3198 18.3704 66.4438 17.3633 66.5117 16.0453L66.7722 10.9954C66.8553 9.38262 65.6149 8 64 8C62.3851 8 61.1446 9.38262 61.2278 10.9954L61.4883 16.0453C61.5562 17.3633 62.6802 18.3704 64 18.3704ZM41.1787 24.4786C42.3208 23.8176 42.7936 22.3824 42.1936 21.2071L39.8982 16.711C39.1616 15.2684 37.3865 14.6915 35.9845 15.5028C34.5825 16.3141 34.2057 18.1356 35.0892 19.4933L37.8426 23.7245C38.5623 24.8305 40.0366 25.1395 41.1787 24.4786ZM24.4786 41.1787C25.1395 40.0366 24.8305 38.5623 23.7245 37.8426L19.4933 35.0892C18.1356 34.2058 16.3141 34.5825 15.5028 35.9845C14.6915 37.3865 15.2684 39.1616 16.711 39.8982L21.2071 42.1936C22.3824 42.7936 23.8176 42.3208 24.4786 41.1787ZM16.0453 61.4883C17.3633 61.5562 18.3704 62.6802 18.3704 64C18.3704 65.3198 17.3633 66.4438 16.0453 66.5117L10.9954 66.7722C9.38262 66.8554 8 65.6149 8 64C8 62.3851 9.38262 61.1446 10.9954 61.2278L16.0453 61.4883ZM24.4786 86.8213C23.8176 85.6792 22.3824 85.2064 21.2071 85.8064L16.711 88.1018C15.2684 88.8384 14.6915 90.6135 15.5028 92.0155C16.3141 93.4175 18.1356 93.7943 19.4933 92.9108L23.7245 90.1574C24.8305 89.4377 25.1395 87.9634 24.4786 86.8213ZM41.1787 103.521C40.0366 102.861 38.5623 103.17 37.8426 104.276L35.0892 108.507C34.2058 109.864 34.5825 111.686 35.9845 112.497C37.3865 113.309 39.1616 112.732 39.8982 111.289L42.1936 106.793C42.7936 105.618 42.3208 104.182 41.1787 103.521ZM64 109.63C62.6802 109.63 61.5562 110.637 61.4883 111.955L61.2278 117.005C61.1446 118.617 62.3851 120 64 120C65.6149 120 66.8554 118.617 66.7722 117.005L66.5117 111.955C66.4438 110.637 65.3198 109.63 64 109.63ZM86.8213 103.521C85.6792 104.182 85.2064 105.618 85.8064 106.793L88.1018 111.289C88.8384 112.732 90.6135 113.309 92.0155 112.497C93.4175 111.686 93.7943 109.864 92.9108 108.507L90.1574 104.276C89.4377 103.17 87.9634 102.861 86.8213 103.521ZM103.521 86.8213C102.861 87.9634 103.17 89.4377 104.276 90.1574L108.507 92.9108C109.864 93.7942 111.686 93.4175 112.497 92.0155C113.309 90.6135 112.732 88.8384 111.289 88.1018L106.793 85.8064C105.618 85.2064 104.182 85.6792 103.521 86.8213Z" fill="#FFD400"></path>
    <path d="M102.37 64C102.37 85.1914 85.1914 102.37 64 102.37C42.8086 102.37 25.6296 85.1914 25.6296 64C25.6296 42.8086 42.8086 25.6296 64 25.6296C85.1914 25.6296 102.37 42.8086 102.37 64Z" fill="#FFD400"></path>
  </symbol>
  <symbol fill="none" xmlns="http://www.w3.org/2000/svg" viewBox="0 0 22 22" id="visibility">
    <g clip-path="url(#clip0_4_91)">
      <path d="M20.42 10.6C18.4 5.91 14.6 3 10.5 3C6.40001 3 2.60001 5.91 0.580006 10.6C0.524942 10.7262 0.496521 10.8623 0.496521 11C0.496521 11.1377 0.524942 11.2738 0.580006 11.4C2.60001 16.09 6.40001 19 10.5 19C14.6 19 18.4 16.09 20.42 11.4C20.4751 11.2738 20.5035 11.1377 20.5035 11C20.5035 10.8623 20.4751 10.7262 20.42 10.6ZM10.5 17C7.32001 17 4.33001 14.71 2.60001 11C4.33001 7.29 7.32001 5 10.5 5C13.68 5 16.67 7.29 18.4 11C16.67 14.71 13.68 17 10.5 17ZM10.5 7C9.70888 7 8.93552 7.2346 8.27773 7.67412C7.61993 8.11365 7.10724 8.73836 6.80449 9.46927C6.50174 10.2002 6.42252 11.0044 6.57686 11.7804C6.7312 12.5563 7.11217 13.269 7.67158 13.8284C8.23099 14.3878 8.94372 14.7688 9.71964 14.9231C10.4956 15.0775 11.2998 14.9983 12.0307 14.6955C12.7616 14.3928 13.3864 13.8801 13.8259 13.2223C14.2654 12.5645 14.5 11.7911 14.5 11C14.5 9.93913 14.0786 8.92172 13.3284 8.17157C12.5783 7.42143 11.5609 7 10.5 7ZM10.5 13C10.1044 13 9.71776 12.8827 9.38887 12.6629C9.05997 12.4432 8.80362 12.1308 8.65225 11.7654C8.50087 11.3999 8.46126 10.9978 8.53843 10.6098C8.61561 10.2219 8.80609 9.86549 9.08579 9.58579C9.3655 9.30608 9.72186 9.1156 10.1098 9.03843C10.4978 8.96126 10.8999 9.00087 11.2654 9.15224C11.6308 9.30362 11.9432 9.55996 12.1629 9.88886C12.3827 10.2178 12.5 10.6044 12.5 11C12.5 11.5304 12.2893 12.0391 11.9142 12.4142C11.5391 12.7893 11.0304 13 10.5 13Z" fill="white"></path>
    </g>
    <defs>
      <clipPath id="clip0_4_91">
        <rect width="22" height="22" fill="white"></rect>
      </clipPath>
    </defs>
  </symbol>
  <symbol fill="none" xmlns="http://www.w3.org/2000/svg" viewBox="0 0 24 24" id="wind">
    <path d="M3.5 9C3.69778 9 3.89112 8.94135 4.05557 8.83147C4.22002 8.72159 4.34819 8.56541 4.42388 8.38268C4.49957 8.19996 4.51937 7.99889 4.48079 7.80491C4.4422 7.61093 4.34696 7.43275 4.20711 7.29289C4.06725 7.15304 3.88907 7.0578 3.69509 7.01921C3.50111 6.98063 3.30004 7.00043 3.11732 7.07612C2.93459 7.15181 2.77841 7.27998 2.66853 7.44443C2.55865 7.60888 2.5 7.80222 2.5 8C2.5 8.26522 2.60536 8.51957 2.79289 8.70711C2.98043 8.89464 3.23478 9 3.5 9ZM7.5 9H14.5C15.2956 9 16.0587 8.68393 16.6213 8.12132C17.1839 7.55871 17.5 6.79565 17.5 6C17.5 5.20435 17.1839 4.44129 16.6213 3.87868C16.0587 3.31607 15.2956 3 14.5 3C13.9739 3.00218 13.4573 3.13994 13 3.4C12.8854 3.46533 12.7849 3.55268 12.7042 3.65703C12.6235 3.76138 12.5643 3.88066 12.5299 4.008C12.4955 4.13534 12.4866 4.26822 12.5038 4.399C12.521 4.52978 12.5639 4.65587 12.63 4.77C12.6962 4.88375 12.7841 4.98333 12.8889 5.06302C12.9936 5.14271 13.113 5.20094 13.2403 5.23439C13.3675 5.26783 13.5002 5.27583 13.6305 5.25791C13.7609 5.24 13.8865 5.19653 14 5.13C14.1538 5.04722 14.3253 5.00264 14.5 5C14.7652 5 15.0196 5.10536 15.2071 5.29289C15.3946 5.48043 15.5 5.73478 15.5 6C15.5 6.26522 15.3946 6.51957 15.2071 6.70711C15.0196 6.89464 14.7652 7 14.5 7H7.5C7.23478 7 6.98043 7.10536 6.79289 7.29289C6.60536 7.48043 6.5 7.73478 6.5 8C6.5 8.26522 6.60536 8.51957 6.79289 8.70711C6.98043 8.89464 7.23478 9 7.5 9ZM3.5 13H10.5C10.7652 13 11.0196 12.8946 11.2071 12.7071C11.3946 12.5196 11.5 12.2652 11.5 12C11.5 11.7348 11.3946 11.4804 11.2071 11.2929C11.0196 11.1054 10.7652 11 10.5 11H3.5C3.23478 11 2.98043 11.1054 2.79289 11.2929C2.60536 11.4804 2.5 11.7348 2.5 12C2.5 12.2652 2.60536 12.5196 2.79289 12.7071C2.98043 12.8946 3.23478 13 3.5 13ZM20.5 9C20.6978 9 20.8911 8.94135 21.0556 8.83147C21.22 8.72159 21.3482 8.56541 21.4239 8.38268C21.4996 8.19996 21.5194 7.99889 21.4808 7.80491C21.4422 7.61093 21.347 7.43275 21.2071 7.29289C21.0673 7.15304 20.8891 7.0578 20.6951 7.01921C20.5011 6.98063 20.3 7.00043 20.1173 7.07612C19.9346 7.15181 19.7784 7.27998 19.6685 7.44443C19.5586 7.60888 19.5 7.80222 19.5 8C19.5 8.26522 19.6054 8.51957 19.7929 8.70711C19.9804 8.89464 20.2348 9 20.5 9ZM18.5 11H14.5C14.2348 11 13.9804 11.1054 13.7929 11.2929C13.6054 11.4804 13.5 11.7348 13.5 12C13.5 12.2652 13.6054 12.5196 13.7929 12.7071C13.9804 12.8946 14.2348 13 14.5 13H18.5C18.7652 13 19.0196 13.1054 19.2071 13.2929C19.3946 13.4804 19.5 13.7348 19.5 14C19.5 14.2652 19.3946 14.5196 19.2071 14.7071C19.0196 14.8946 18.7652 15 18.5 15C18.2348 15 17.9804 15.1054 17.7929 15.2929C17.6054 15.4804 17.5 15.7348 17.5 16C17.5 16.2652 17.6054 16.5196 17.7929 16.7071C17.9804 16.8946 18.2348 17 18.5 17C19.2956 17 20.0587 16.6839 20.6213 16.1213C21.1839 15.5587 21.5 14.7956 21.5 14C21.5 13.2044 21.1839 12.4413 20.6213 11.8787C20.0587 11.3161 19.2956 11 18.5 11ZM12.5 15H8.5C8.23478 15 7.98043 15.1054 7.79289 15.2929C7.60536 15.4804 7.5 15.7348 7.5 16C7.5 16.2652 7.60536 16.5196 7.79289 16.7071C7.98043 16.8946 8.23478 17 8.5 17H12.5C12.7652 17 13.0196 17.1054 13.2071 17.2929C13.3946 17.4804 13.5 17.7348 13.5 18C13.5 18.2652 13.3946 18.5196 13.2071 18.7071C13.0196 18.8946 12.7652 19 12.5 19C12.3253 18.9974 12.1538 18.9528 12 18.87C11.8862 18.7976 11.7589 18.7491 11.6258 18.7272C11.4927 18.7053 11.3566 18.7105 11.2256 18.7426C11.0946 18.7747 10.9715 18.833 10.8636 18.9139C10.7557 18.9948 10.6652 19.0967 10.5978 19.2135C10.5303 19.3302 10.4871 19.4594 10.4708 19.5933C10.4546 19.7272 10.4655 19.863 10.5031 19.9925C10.5407 20.1221 10.6041 20.2427 10.6895 20.347C10.7749 20.4514 10.8805 20.5375 11 20.6C11.4573 20.8601 11.9739 20.9978 12.5 21C13.2956 21 14.0587 20.6839 14.6213 20.1213C15.1839 19.5587 15.5 18.7956 15.5 18C15.5 17.2044 15.1839 16.4413 14.6213 15.8787C14.0587 15.3161 13.2956 15 12.5 15ZM4.5 15H3.5C3.23478 15 2.98043 15.1054 2.79289 15.2929C2.60536 15.4804 2.5 15.7348 2.5 16C2.5 16.2652 2.60536 16.5196 2.79289 16.7071C2.98043 16.8946 3.23478 17 3.5 17H4.5C4.76522 17 5.01957 16.8946 5.20711 16.7071C5.39464 16.5196 5.5 16.2652 5.5 16C5.5 15.7348 5.39464 15.4804 5.20711 15.2929C5.01957 15.1054 4.76522 15 4.5 15Z" fill="white"></path>
  </symbol>
  <symbol fill="none" xmlns="http://www.w3.org/2000/svg" viewBox="0 0 24 24" id="apparent">
    <path d="M13 15.28V8.5C13 8.23478 12.8946 7.98043 12.7071 7.79289C12.5196 7.60536 12.2652 7.5 12 7.5C11.7348 7.5 11.4804 7.60536 11.2929 7.79289C11.1054 7.98043 11 8.23478 11 8.5V15.28C10.6977 15.4545 10.4464 15.7051 10.2709 16.0068C10.0955 16.3086 10.0021 16.651 10 17C10 17.5304 10.2107 18.0391 10.5858 18.4142C10.9609 18.7893 11.4696 19 12 19C12.5304 19 13.0391 18.7893 13.4142 18.4142C13.7893 18.0391 14 17.5304 14 17C13.9979 16.651 13.9045 16.3086 13.729 16.0068C13.5536 15.7051 13.3023 15.4545 13 15.28ZM16.5 13V5.5C16.5 4.30653 16.0259 3.16193 15.182 2.31802C14.3381 1.47411 13.1935 1 12 1C10.8065 1 9.66193 1.47411 8.81802 2.31802C7.9741 3.16193 7.5 4.30653 7.5 5.5V13C6.80884 13.7832 6.33412 14.7333 6.12281 15.7562C5.91149 16.7792 5.9709 17.8396 6.29515 18.8326C6.6194 19.8255 7.19727 20.7166 7.97158 21.4177C8.74589 22.1188 9.68982 22.6056 10.71 22.83C11.1338 22.9266 11.5657 22.9835 12 23C13.1606 23.0054 14.2979 22.6741 15.274 22.0461C16.2501 21.4182 17.0232 20.5207 17.4994 19.4623C17.9757 18.4038 18.1348 17.23 17.9574 16.083C17.78 14.936 17.2738 13.8651 16.5 13ZM14.5 20.07C13.7043 20.7755 12.661 21.136 11.5996 21.0722C10.5381 21.0085 9.54547 20.5256 8.84 19.73C8.13452 18.9344 7.77401 17.891 7.83777 16.8296C7.90154 15.7681 8.38435 14.7755 9.18 14.07C9.27449 13.9774 9.34965 13.8669 9.40115 13.7451C9.45265 13.6232 9.47945 13.4923 9.48 13.36V5.5C9.48 4.83696 9.74339 4.20107 10.2122 3.73223C10.6811 3.26339 11.317 3 11.98 3C12.643 3 13.2789 3.26339 13.7478 3.73223C14.2166 4.20107 14.48 4.83696 14.48 5.5V13.44C14.4805 13.5723 14.5073 13.7032 14.5588 13.8251C14.6103 13.9469 14.6855 14.0574 14.78 14.15C15.1887 14.5449 15.5087 15.0223 15.7184 15.5505C15.9282 16.0787 16.023 16.6456 15.9965 17.2133C15.97 17.781 15.8228 18.3366 15.5648 18.843C15.3067 19.3493 14.9437 19.7949 14.5 20.15V20.07Z" fill="white"></path>
  </symbol>
</svg>